<svg width="383" height="370" viewBox="0 0 383 370" fill="none" xmlns="http://www.w3.org/2000/svg">
<rect x="172.948" y="1.78754" width="212.574" height="321.847" rx="18.5" transform="rotate(12.4217 172.948 1.78754)" stroke="#FCFCFC" stroke-width="3"/>
<path d="M157.644 36.6519L85.221 36.5828C74.0122 36.5721 64.983 45.7739 65.2059 56.9806L70.5612 326.216C70.7822 337.328 80.0197 346.128 91.1289 345.811L181.075 343.238" stroke="white" stroke-width="3" stroke-linecap="round"/>
<path d="M102.189 66.0522H105.801L121.278 102.755H115.794L112.076 93.5269H95.7813L92.0899 102.755H86.711L102.189 66.0522ZM110.389 89.3081L103.955 73.2241L97.4952 89.3081H110.389Z" fill="white"/>
<path d="M186.472 70.028C185.748 69.883 184.749 69.6379 183.473 69.2926L184.473 64.303C185.121 64.6479 186.341 65 188.134 65.3592C189.943 65.7219 191.51 65.7759 192.834 65.5213C194.175 65.2701 195.368 64.6845 196.413 63.7645C198.524 61.9106 200.062 58.5707 201.029 53.7447L203.677 40.5338L190.414 37.876L191.331 33.3L209.764 36.9939L206.2 54.7809C204.328 64.1225 200.232 69.3075 193.913 70.3359C191.745 70.6902 189.264 70.5876 186.472 70.028Z" fill="white"/>
<path d="M237.066 202.61L247.347 221.041L219.583 214.43L237.066 202.61Z" fill="black"/>
<path d="M248.733 153.612L271.677 196.367L208.983 181.44L248.733 153.612Z" fill="black"/>
<circle cx="259.616" cy="192.812" r="19.6673" transform="rotate(-166.608 259.616 192.812)" fill="black"/>
<circle cx="221.352" cy="183.702" r="19.6673" transform="rotate(-166.608 221.352 183.702)" fill="black"/>
<rect x="279.057" y="186.793" width="10.5262" height="52.4366" rx="5.26308" transform="rotate(148.392 279.057 186.793)" fill="black"/>
<rect x="212.456" y="178.587" width="10.5262" height="52.3951" rx="5.26308" transform="rotate(-121.608 212.456 178.587)" fill="black"/>
</svg>
