<svg width="380" height="380" viewBox="0 0 380 380" fill="none" xmlns="http://www.w3.org/2000/svg">
<rect x="1.15027" y="1.80058" width="211.612" height="330.677" rx="18.5" transform="matrix(0.974981 0.222286 -0.208135 0.9781 171.16 -0.216256)" stroke="#FCFCFC" stroke-width="3"/>
<path d="M156.681 37.7063L84.485 37.635C73.4179 37.6241 64.5783 46.6847 64.7923 57.82L70.1345 335.821C70.3509 347.083 79.7347 356.08 90.9178 355.749L179.97 353.114" stroke="white" stroke-width="3" stroke-linecap="round"/>
<path d="M101.554 68.7427H105.166L120.644 105.446H115.16L111.442 96.2173H95.1469L91.4555 105.446H86.0766L101.554 68.7427ZM109.754 91.9985L103.321 75.9146L96.8608 91.9985H109.754Z" fill="white"/>
<path d="M185.343 71.8251C184.62 71.6752 183.621 71.4232 182.347 71.0691L183.314 66.073C183.963 66.4229 185.182 66.7835 186.972 67.1548C188.779 67.5297 190.342 67.5936 191.661 67.3466C192.997 67.1032 194.184 66.5235 195.22 65.6077C197.314 63.7622 198.829 60.4234 199.764 55.5913L202.325 42.3633L189.081 39.6161L189.968 35.0342L208.376 38.8524L204.928 56.6623C203.117 66.016 199.063 71.1886 192.766 72.1802C190.605 72.5218 188.131 72.4035 185.343 71.8251Z" fill="white"/>
<path d="M235.62 208.44L245.838 227.4L218.243 220.599L235.62 208.44Z" fill="black"/>
<path d="M247.215 158.031L270.02 202.016L207.708 186.66L247.215 158.031Z" fill="black"/>
<ellipse cx="19.5847" cy="20.197" rx="19.5847" ry="20.197" transform="matrix(-0.970949 -0.239286 0.224167 -0.974551 272.521 222.729)" fill="black"/>
<ellipse cx="19.5847" cy="20.197" rx="19.5847" ry="20.197" transform="matrix(-0.970949 -0.239286 0.224167 -0.974551 234.489 213.356)" fill="black"/>
<rect width="10.6471" height="53.0388" rx="5.32353" transform="matrix(-0.836849 0.533057 -0.514988 -0.866211 277.354 192.167)" fill="black"/>
<rect width="10.6471" height="52.9968" rx="5.32353" transform="matrix(-0.514988 -0.866211 0.836849 -0.533057 211.159 183.725)" fill="black"/>
</svg>
