<svg width="361" height="360" viewBox="0 0 361 360" fill="none" xmlns="http://www.w3.org/2000/svg">
<ellipse cx="290.464" cy="142.103" rx="35.8739" ry="33.4152" fill="black"/>
<ellipse cx="325.01" cy="181.706" rx="35.8739" ry="33.4152" fill="black"/>
<ellipse cx="255.033" cy="181.706" rx="35.8739" ry="33.4152" fill="black"/>
<path d="M290.021 205.221L313.801 229.354H266.24L290.021 205.221Z" fill="black"/>
<path d="M239.493 52.0787L183.632 104.157L127.771 52.0787L183.632 -2.12778e-06L239.493 52.0787Z" fill="#EB0000"/>
<path d="M184.816 338.442L126.642 272.291L242.991 272.291L184.816 338.442Z" fill="#EB0000"/>
<ellipse cx="149.311" cy="273.503" rx="35.5063" ry="35.8621" fill="#EB0000"/>
<ellipse cx="220.324" cy="273.503" rx="35.5063" ry="35.8621" fill="#EB0000"/>
<rect width="19.0988" height="95.1416" rx="9.54941" transform="matrix(0.703573 -0.710623 0.703573 0.710623 117.687 292.39)" fill="#EB0000"/>
<rect width="19.0988" height="95.0664" rx="9.54941" transform="matrix(0.703573 0.710623 -0.703573 0.710623 238.084 278.818)" fill="#EB0000"/>
<path d="M64.4398 205.221L87.4972 229.354H41.3824L64.4398 205.221Z" fill="black"/>
<path d="M64.4414 127.039L116.507 183.35L12.3763 183.35L64.4414 127.039Z" fill="black"/>
<ellipse cx="96.2176" cy="182.319" rx="31.7775" ry="30.5275" transform="rotate(-180 96.2176 182.319)" fill="black"/>
<ellipse cx="32.6619" cy="182.319" rx="31.7775" ry="30.5275" transform="rotate(-180 32.6619 182.319)" fill="black"/>
<rect width="16.6765" height="83.0748" rx="8.33826" transform="matrix(-0.721148 0.69278 -0.721148 -0.692781 124.522 166.241)" fill="black"/>
<rect width="16.6765" height="83.0091" rx="8.33826" transform="matrix(-0.721148 -0.692781 0.721148 -0.69278 16.7661 177.794)" fill="black"/>
<path d="M54.4395 277.056L309.021 58.1729" stroke="#CECECE" stroke-width="5" stroke-linecap="round"/>
<path d="M309.021 277.056L54.439 58.1729" stroke="#CECECE" stroke-width="5" stroke-linecap="round"/>
</svg>
